Coordinates
version=1
nRows=10
nColumns=40
inDegrees=yes

Units are S.I. units (second, meters, Newtons, ...)
If the header above contains a line with 'inDegrees', this indicates whether rotational values are in degrees (yes) or radians (no).

endheader
time	pelvis_tilt	pelvis_list	pelvis_rotation	pelvis_tx	pelvis_ty	pelvis_tz	hip_flexion_r	hip_adduction_r	hip_rotation_r	knee_angle_r	knee_angle_r_beta	ankle_angle_r	subtalar_angle_r	mtp_angle_r	hip_flexion_l	hip_adduction_l	hip_rotation_l	knee_angle_l	knee_angle_l_beta	ankle_angle_l	subtalar_angle_l	mtp_angle_l	lumbar_extension	lumbar_bending	lumbar_rotation	arm_flex_r	arm_add_r	arm_rot_r	elbow_flex_r	pro_sup_r	wrist_flex_r	wrist_dev_r	arm_flex_l	arm_add_l	arm_rot_l	elbow_flex_l	pro_sup_l	wrist_flex_l	wrist_dev_l
      2.78000000	    -17.69581747	      0.38213875	     -1.75607649	      0.97231227	      1.01862918	     -0.36331577	     56.34622638	     -1.41291154	      1.98746695	     83.92716841	      1.46480542	      1.51316649	      0.00000000	      0.00000000	      3.50393030	      5.57555545	     -2.30186649	     22.90224065	      0.39971951	     -9.79395477	      0.00000000	      0.00000000	      6.64069228	      1.08577132	     -9.95034306	    -42.45026501	    -24.72223427	     -8.35304891	     97.91922935	     62.74087918	      0.00000000	      0.00000000	    -28.67533086	    -11.80299106	     -9.71093571	    128.94775653	     56.95323581	      0.00000000	      0.00000000
      2.79000000	    -17.44449124	     -0.22801783	     -2.61407828	      0.97563078	      1.02605161	     -0.36320322	     56.11980541	     -0.66295440	      0.71226916	     78.12772165	      1.36358598	      1.78315492	      0.00000000	      0.00000000	      0.06009250	      4.76950783	     -3.40577541	     19.81321209	      0.34580579	    -16.19748820	      0.00000000	      0.00000000	      6.73966000	      2.30004796	     -9.57254011	    -44.42210312	    -24.30869138	    -10.07460489	     99.51390458	     62.08755878	      0.00000000	      0.00000000	    -28.87207771	    -11.87441153	     -9.17596965	    130.29715239	     56.92329094	      0.00000000	      0.00000000
      2.80000000	    -17.79627691	      0.51053400	     -2.92080441	      0.97705746	      1.03099700	     -0.36321711	     56.79523760	     -1.23014097	      0.06101273	     72.65520590	      1.26807256	      2.01787551	      0.00000000	      0.00000000	     -1.33831318	      5.37397610	     -3.75305680	     19.68376229	      0.34354646	    -17.64996591	      0.00000000	      0.00000000	      7.20555570	      1.73230967	     -9.80934799	    -45.70596745	    -24.22686428	    -10.46763472	    100.31964297	     61.98095861	      0.00000000	      0.00000000	    -29.65555388	    -12.53975282	     -9.36494719	    131.78903647	     56.95708501	      0.00000000	      0.00000000
      2.81000000	    -18.40704797	     -0.93138470	     -3.42424084	      0.98027835	      1.03660220	     -0.36259674	     56.35414156	      0.42460815	     -1.78116340	     65.42099866	      1.14181183	      1.70678750	      0.00000000	      0.00000000	     -3.29268364	      3.63086815	     -3.99221484	     17.09603799	      0.29838215	    -25.75541371	      0.00000000	      0.00000000	      8.24428668	      3.72134792	     -9.89920040	    -47.24344288	    -23.70804211	    -11.97704183	    102.13072809	     61.32948864	      0.00000000	      0.00000000	    -30.14977784	    -12.34605514	     -8.89788761	    134.28583687	     57.03484224	      0.00000000	      0.00000000
      2.82000000	    -18.47961793	      0.26837296	     -3.71202839	      0.98240292	      1.03986014	     -0.36236179	     56.31698222	     -0.37634572	     -2.55096722	     59.89584430	      1.04537969	      1.69013002	      0.00000000	      0.00000000	     -4.58761583	      4.78709248	     -4.16737327	     17.39612695	      0.30361969	    -27.07419441	      0.00000000	      0.00000000	      8.58012811	      2.56918463	     -9.93801151	    -48.57399295	    -23.48289286	    -12.27175379	    102.97122874	     61.21584390	      0.00000000	      0.00000000	    -31.26826096	    -13.11466806	     -9.11047972	    135.42273742	     57.06881646	      0.00000000	      0.00000000
      2.83000000	    -18.55826565	     -0.51218602	     -3.86793253	      0.98377887	      1.04460078	     -0.36133316	     54.74077470	      1.06143164	     -3.19138966	     51.68118400	      0.90200682	      0.14275998	      0.00000000	      0.00000000	     -5.81619503	      3.78387191	     -3.01058122	     17.40540370	      0.30378160	    -31.93221609	      0.00000000	      0.00000000	      8.78741519	      3.61047664	    -10.18997864	    -49.18360980	    -22.47625730	    -13.22949626	    104.43412036	     60.42750136	      0.00000000	      0.00000000	    -31.27377809	    -13.43187150	     -8.70077188	    136.93965771	     57.04631670	      0.00000000	      0.00000000
      2.84000000	    -18.42236725	      0.80462756	     -4.33924001	      0.98618451	      1.04581510	     -0.36026436	     54.19994434	      0.50900675	     -4.07743834	     46.51873142	      0.81190503	      0.12164483	      0.00000000	      0.00000000	     -6.87560075	      5.15767910	     -2.52363817	     18.62499598	      0.32506750	    -32.53803829	      0.00000000	      0.00000000	      8.94612940	      2.24862960	     -9.95694594	    -50.21336914	    -22.06408077	    -13.43749254	    105.43061745	     60.26537617	      0.00000000	      0.00000000	    -32.70083198	    -14.26364899	     -8.81433343	    137.86169597	     57.04195484	      0.00000000	      0.00000000
      2.85000000	    -18.22570231	      0.11564725	     -4.00115403	      0.98562977	      1.04875462	     -0.35952809	     51.78954628	      2.08447144	     -2.94733428	     37.93250036	      0.66204702	     -1.49734656	      0.00000000	      0.00000000	     -6.96842004	      4.37123957	      0.36442791	     22.00677020	      0.38409060	    -32.21385752	      0.00000000	      0.00000000	      8.40538268	      3.02408329	    -10.51086835	    -50.00199157	    -21.05002565	    -13.90296069	    106.46582076	     59.36684916	      0.00000000	      0.00000000	    -32.27714934	    -14.93281941	     -8.15541056	    138.44286526	     56.80177426	      0.00000000	      0.00000000
      2.86000000	    -17.86672049	      0.26706927	     -3.96139740	      0.98603736	      1.04951539	     -0.35856970	     49.81951769	      2.83661015	     -1.75070582	     31.44844271	      0.54887887	     -1.87210712	      0.00000000	      0.00000000	     -7.01394937	      4.54240459	      2.05407605	     25.94234920	      0.45277941	    -30.93766164	      0.00000000	      0.00000000	      7.92219648	      2.89421129	    -10.57905443	    -50.10467901	    -20.37929886	    -14.09207263	    107.49664002	     58.63573432	      0.00000000	      0.00000000	    -32.57412418	    -15.80477170	     -7.59367466	    138.75197743	     56.52985760	      0.00000000	      0.00000000
      2.87000000	    -17.55188029	     -0.05734296	     -4.29017429	      0.98620147	      1.04908879	     -0.35765649	     47.70791601	      4.11188652	     -0.31486774	     25.35174134	      0.44247136	     -2.70661483	      0.00000000	      0.00000000	     -6.60980137	      4.20396725	      2.65868108	     30.88061562	      0.53896842	    -28.66772913	      0.00000000	      0.00000000	      7.37662264	      3.38538598	    -10.18259799	    -50.07450314	    -19.90359158	    -14.36690076	    108.27900646	     57.51750416	      0.00000000	      0.00000000	    -32.73478237	    -16.41423665	     -6.68240827	    138.46113819	     56.02526494	      0.00000000	      0.00000000
